<?xml version="1.0"?>
<svg xmlns="http://www.w3.org/2000/svg" xmlns:xlink="http://www.w3.org/1999/xlink" xmlns:svgjs="http://svgjs.com/svgjs" version="1.1" width="512" height="512" x="0" y="0" viewBox="0 0 512.004 512.004" style="enable-background:new 0 0 512 512" xml:space="preserve" class=""><g><g xmlns="http://www.w3.org/2000/svg"><path d="m500.144 86.093-5.265-2.695c.929-4.486 1.298-9.058 1.1-13.634l5.628-1.817c7.884-2.545 12.212-10.999 9.667-18.882-2.545-7.884-11.002-12.21-18.882-9.667l-5.629 1.817c-2.515-3.829-5.487-7.322-8.864-10.418l2.696-5.265c3.775-7.374.857-16.412-6.517-20.188s-16.412-.858-20.188 6.517l-2.704 5.282c-4.525-.927-9.094-1.278-13.615-1.082l-1.828-5.663c-2.544-7.884-10.999-12.212-18.882-9.667-7.884 2.545-12.211 10.999-9.667 18.882l1.828 5.662c-3.782 2.484-7.284 5.441-10.413 8.839l-5.282-2.704c-7.374-3.774-16.412-.858-20.188 6.517-3.775 7.374-.857 16.412 6.517 20.188l5.265 2.695c-.929 4.486-1.297 9.057-1.099 13.634l-5.629 1.817c-7.883 2.544-12.211 10.999-9.667 18.882 2.051 6.353 7.938 10.396 14.271 10.396 1.527 0 3.08-.235 4.611-.729l5.628-1.817c2.515 3.829 5.487 7.322 8.863 10.418l-2.696 5.266c-3.775 7.374-.857 16.412 6.517 20.187 2.188 1.121 4.522 1.651 6.823 1.651 5.451 0 10.71-2.982 13.364-8.168l2.698-5.271c3.701.766 7.458 1.175 11.231 1.175.801 0 1.602-.021 2.403-.056l1.813 5.616c2.051 6.353 7.938 10.396 14.271 10.396 1.527 0 3.08-.235 4.611-.729 7.884-2.545 12.211-10.999 9.667-18.883l-1.817-5.628c3.829-2.515 7.322-5.487 10.418-8.863l5.266 2.696c2.188 1.121 4.522 1.651 6.823 1.651 5.451 0 10.71-2.982 13.364-8.168 3.781-7.377.863-16.415-6.511-20.19zm-83.492-25.893c4.618-9.02 13.793-14.213 23.292-14.213 4.001 0 8.06.922 11.86 2.867 12.819 6.563 17.909 22.332 11.346 35.151s-22.33 17.911-35.151 11.346c-12.82-6.562-17.91-22.331-11.347-35.151z" fill="#00bbf5" data-original="#525cdd" style="" class=""/><g><path d="m136.999 445.005c-4.958 0-9.608-2.452-12.406-6.571-2.894-4.259-3.4-9.706-1.341-14.425l26.825-61.504c12.246-28.779 40.272-47.369 71.424-47.369 16.833 0 32.873 5.353 46.385 15.479 13.034 9.768 22.868 23.653 27.691 39.096.033.104.064.209.094.314l14.55 50.439c1.282 4.443.442 9.229-2.274 12.971-2.717 3.742-7.008 6.021-11.629 6.178l-158.809 5.383c-.171.006-.341.009-.51.009z" fill="#00ace3" data-original="#7dd5f4" style="" class=""/></g><path d="m310.221 420.464-14.55-50.439c-.03-.105-.062-.209-.094-.314-4.823-15.443-14.657-29.328-27.691-39.096-13.512-10.126-29.552-15.479-46.385-15.479v127.014l74.816-2.536c4.622-.157 8.913-2.436 11.629-6.178 2.717-3.743 3.557-8.529 2.275-12.972z" fill="#0693d2" data-original="#4793ff" style="" class=""/><g><path d="m221.501 344.093c-29.549 0-53.589-24.04-53.589-53.589s24.04-53.588 53.589-53.588 53.588 24.04 53.588 53.588-24.04 53.589-53.588 53.589z" fill="#ffe4c1" data-original="#ffe4c1" style="" class=""/></g><g><path d="m408.567 245.763c-9.403-2.502-16.172-8.642-19.577-17.756-1.471-3.94-3.106-7.882-4.858-11.715-4.05-8.858-3.608-17.996 1.278-26.423 10.524-18.151 7.528-41.175-7.286-55.988-14.814-14.815-37.838-17.811-55.989-7.286-8.427 4.886-17.563 5.328-26.422 1.279-3.828-1.75-7.77-3.384-11.714-4.857-9.115-3.403-15.255-10.173-17.758-19.578-5.394-20.274-23.792-34.434-44.741-34.434s-39.348 14.16-44.741 34.434c-2.502 9.404-8.643 16.173-17.757 19.577-3.941 1.472-7.883 3.105-11.715 4.857-8.857 4.05-17.994 3.608-26.422-1.279-18.151-10.525-41.175-7.528-55.989 7.287-18.048 18.047-18.048 47.413 0 65.46l1.806 1.806c-7.854 13.553-13.831 27.968-17.86 43.069h-2.534c-25.523 0-46.288 20.764-46.288 46.288 0 20.949 14.16 39.347 34.433 44.741 9.403 2.502 16.173 8.643 19.577 17.757 1.472 3.94 3.106 7.882 4.858 11.715 4.05 8.858 3.608 17.995-1.278 26.422-10.524 18.151-7.528 41.174 7.287 55.988 14.814 14.814 37.839 17.811 55.989 7.286 8.428-4.887 17.564-5.329 26.423-1.279 3.831 1.751 7.772 3.385 11.714 4.857 9.115 3.403 15.255 10.173 17.757 19.577 5.394 20.274 23.792 34.435 44.741 34.435s39.348-14.16 44.741-34.434c2.502-9.404 8.643-16.174 17.759-19.578 3.95-1.476 7.892-3.11 11.712-4.857 8.858-4.048 17.995-3.607 26.422 1.279 18.152 10.523 41.174 7.528 55.988-7.286 14.815-14.813 17.812-37.837 7.287-55.988-4.886-8.428-5.328-17.565-1.278-26.423 1.752-3.833 3.387-7.774 4.858-11.716 3.404-9.114 10.173-15.254 19.576-17.756 20.274-5.394 34.434-23.792 34.434-44.739 0-20.95-14.16-39.348-34.433-44.742zm-187.066 161.948c-64.628 0-117.207-52.579-117.207-117.207s52.579-117.207 117.207-117.207 117.207 52.579 117.207 117.207-52.579 117.207-117.207 117.207z" fill="#474f54" data-original="#fff4f4" style="" class=""/></g><path d="m221.501 236.915v107.177c29.549 0 53.588-24.04 53.588-53.589s-24.039-53.588-53.588-53.588z" fill="#fdd1a3" data-original="#fdd1a3" style="" class=""/><path d="m408.567 245.763c-9.403-2.502-16.172-8.642-19.577-17.756-1.471-3.94-3.106-7.882-4.858-11.715-4.05-8.858-3.608-17.996 1.278-26.423 10.524-18.151 7.528-41.175-7.286-55.988-14.814-14.815-37.838-17.811-55.989-7.286-8.427 4.886-17.563 5.328-26.422 1.279-3.828-1.75-7.77-3.384-11.714-4.857-9.115-3.403-15.255-10.173-17.758-19.578-5.394-20.274-23.792-34.433-44.74-34.434v104.293c64.628 0 117.207 52.579 117.207 117.207s-52.579 117.207-117.207 117.207v104.293c20.949 0 39.347-14.16 44.74-34.434 2.502-9.404 8.643-16.174 17.759-19.578 3.95-1.476 7.892-3.11 11.712-4.857 8.858-4.048 17.995-3.607 26.422 1.279 18.152 10.523 41.174 7.528 55.988-7.286 14.815-14.813 17.812-37.837 7.287-55.988-4.886-8.428-5.328-17.565-1.278-26.423 1.752-3.833 3.387-7.774 4.858-11.716 3.404-9.114 10.173-15.254 19.576-17.756 20.275-5.396 34.435-23.794 34.435-44.741 0-20.95-14.16-39.348-34.433-44.742z" fill="#32393f" data-original="#f6efea" style="" class=""/></g></g></svg>
