<?xml version="1.0"?>
<svg xmlns="http://www.w3.org/2000/svg" xmlns:xlink="http://www.w3.org/1999/xlink" xmlns:svgjs="http://svgjs.com/svgjs" version="1.1" width="512" height="512" x="0" y="0" viewBox="0 0 512 512" style="enable-background:new 0 0 512 512" xml:space="preserve" class=""><g><g xmlns="http://www.w3.org/2000/svg"><path d="m398.372 42.843h-72.06v-37.26c0-3.083 2.5-5.583 5.583-5.583h60.894c3.083 0 5.583 2.5 5.583 5.583z" fill="#00bbf5" data-original="#ffd064" style="" class=""/><path d="m392.789 0h-20.305c3.083 0 5.583 2.5 5.583 5.583v37.26h20.305v-37.26c0-3.083-2.5-5.583-5.583-5.583z" fill="#00ace3" data-original="#ffc250" style="" class=""/><circle cx="363.246" cy="171.307" fill="#f9f6f6" r="139.808" data-original="#f9f6f6" style="" class=""/><path d="m363.246 31.498c-4.555 0-9.056.225-13.499.651 70.879 6.792 126.309 66.498 126.309 139.157s-55.43 132.365-126.309 139.157c4.443.426 8.945.651 13.499.651 77.214 0 139.808-62.594 139.808-139.808 0-77.213-62.594-139.808-139.808-139.808z" fill="#dddaec" data-original="#dddaec" style="" class=""/><path d="m336.247 500.468c0 6.369-5.163 11.532-11.532 11.532h-304.237c-6.369 0-11.532-5.163-11.532-11.532v-283.634c0-6.369 5.163-11.532 11.532-11.532h304.238c6.369 0 11.532 5.163 11.532 11.532v283.634z" fill="#00bbf5" data-original="#ffd064" style="" class=""/><path d="m301.45 205.302c6.265 0 11.343 5.079 11.343 11.343v295.355h11.922c6.369 0 11.532-5.163 11.532-11.532v-283.634c0-6.369-5.163-11.532-11.532-11.532z" fill="#00ace3" data-original="#ffc250" style="" class=""/><g><path d="m258.018 464.703c-8.085 7.87-21.02 7.695-28.89-.39l-4.856-4.989c-.461-.474-.451-1.232.023-1.693l32.933-32.056c.232-.225.362-.535.362-.858s-.131-.632-.362-.858l-32.933-32.056c-.474-.461-.484-1.219-.023-1.693l4.856-4.989c7.87-8.086 20.804-8.26 28.89-.39l30.386 29.577c1.575 1.534 2.858 3.367 3.61 5.432 1.998 5.489.508 11.378-3.44 15.22z" fill="#f9f6f6" data-original="#f9f6f6" style="" class=""/></g><path d="m192.758 259.139h-40.323c-3.732 0-6.757-3.025-6.757-6.757v-47.08h53.838v47.08c-.001 3.732-3.026 6.757-6.758 6.757z" fill="#474f54" data-original="#26457d" style="" class=""/><path d="m179.887 205.302v47.08c0 3.732-3.025 6.757-6.757 6.757h19.628c3.732 0 6.757-3.025 6.757-6.757v-47.08z" fill="#32393f" data-original="#21386b" style="" class=""/><g><g><path d="m72.292 452.479c-4.268 0-7.726-3.459-7.726-7.726v-50.45c0-4.268 3.459-7.726 7.726-7.726 4.268 0 7.726 3.459 7.726 7.726v50.45c.001 4.267-3.458 7.726-7.726 7.726z" fill="#474f54" data-original="#26457d" style="" class=""/></g><g><path d="m51.012 414.923c-1.993 0-3.986-.767-5.497-2.297-2.999-3.036-2.968-7.929.067-10.927l21.281-21.017c3.01-2.972 7.849-2.974 10.859 0l21.282 21.017c3.035 2.998 3.066 7.89.067 10.926-2.999 3.038-7.891 3.065-10.926.068l-15.853-15.655-15.851 15.655c-1.506 1.487-3.468 2.23-5.429 2.23z" fill="#474f54" data-original="#26457d" style="" class=""/></g></g><g><g><path d="m140.482 452.479c-4.268 0-7.726-3.459-7.726-7.726v-50.45c0-4.268 3.459-7.726 7.726-7.726s7.726 3.459 7.726 7.726v50.45c0 4.267-3.459 7.726-7.726 7.726z" fill="#474f54" data-original="#26457d" style="" class=""/></g><g><path d="m119.201 414.923c-1.993 0-3.986-.767-5.497-2.297-2.999-3.036-2.968-7.929.067-10.927l21.281-21.017c3.01-2.972 7.849-2.974 10.859 0l21.282 21.017c3.035 2.998 3.066 7.89.067 10.926-2.999 3.038-7.892 3.065-10.926.068l-15.853-15.655-15.851 15.655c-1.506 1.487-3.467 2.23-5.429 2.23z" fill="#474f54" data-original="#26457d" style="" class=""/></g></g><g><path d="m363.246 78.493c-4.268 0-7.726-3.459-7.726-7.726v-8.814c0-4.268 3.459-7.726 7.726-7.726 4.268 0 7.726 3.459 7.726 7.726v8.814c0 4.267-3.458 7.726-7.726 7.726z" fill="#32393f" data-original="#21386b" style="" class=""/></g><g><path d="m472.6 179.033h-8.814c-4.268 0-7.726-3.459-7.726-7.726s3.459-7.726 7.726-7.726h8.814c4.268 0 7.726 3.459 7.726 7.726s-3.458 7.726-7.726 7.726z" fill="#32393f" data-original="#21386b" style="" class=""/></g><g><path d="m363.246 288.387c-4.268 0-7.726-3.459-7.726-7.726v-8.814c0-4.268 3.459-7.726 7.726-7.726 4.268 0 7.726 3.459 7.726 7.726v8.814c0 4.267-3.458 7.726-7.726 7.726z" fill="#32393f" data-original="#21386b" style="" class=""/></g><g><path d="m262.707 179.033h-8.815c-4.268 0-7.726-3.459-7.726-7.726s3.459-7.726 7.726-7.726h8.815c4.268 0 7.726 3.459 7.726 7.726s-3.459 7.726-7.726 7.726z" fill="#32393f" data-original="#21386b" style="" class=""/></g><g><path d="m362.342 179.033c-1.33 0-2.661-.343-3.854-1.03-2.395-1.378-3.872-3.932-3.872-6.696v-65.778c0-4.268 3.459-7.726 7.726-7.726s7.726 3.459 7.726 7.726v52.353l19.842-11.529c3.688-2.143 8.418-.891 10.562 2.8 2.143 3.689.89 8.419-2.8 10.562l-31.45 18.273c-1.198.696-2.539 1.045-3.88 1.045z" fill="#474f54" data-original="#26457d" style="" class=""/></g></g></g></svg>
