<?xml version="1.0"?>
<svg xmlns="http://www.w3.org/2000/svg" xmlns:xlink="http://www.w3.org/1999/xlink" xmlns:svgjs="http://svgjs.com/svgjs" version="1.1" width="512" height="512" x="0" y="0" viewBox="0 0 512 512" style="enable-background:new 0 0 512 512" xml:space="preserve" class=""><g><g xmlns="http://www.w3.org/2000/svg" id="Flat"><path d="m370.1 402.35986c3.01 5.88013 1.45007 19.24024-6.37 24.81006a12.81016 12.81016 0 0 1 -2.1 1.23 17.41874 17.41874 0 0 1 -5.72009 1.62012c.15015 6.90991-2.72 15.6001-9.35986 19.06982a5.23561 5.23561 0 0 1 -.53.27 16.56625 16.56625 0 0 1 -7.23 1.69019 10.82841 10.82841 0 0 1 .05 4.8999c-1.90011 7.01005-8.87005 11.40991-15.06005 12.84005a16.53267 16.53267 0 0 1 -5.93994.40991 7.82217 7.82217 0 0 1 -2.09009-.61011c-.04.2002-.08008.41016-.13.62012-1.53992 6.47-7.61 13.49-12.01 14.57007-5.35 1.32007-13.38-2.53-17.84-8.11011-2.08008 1.98-4.07007 3.78-5.96 5.3501-5.23 4.35986-9.62012 6.98-12.67005 6.98a19.9462 19.9462 0 0 1 -9.03-2.03 17.30721 17.30721 0 0 1 -7-6.26 17.23093 17.23093 0 0 1 -3.10992.29002c-7.48 0-13.21-3.49-16.37-8.85986a19.825 19.825 0 0 1 -2.58-7.64014 26.8449 26.8449 0 0 1 -5.05.5 21.166 21.166 0 0 1 -16.73-8.79 20.459 20.459 0 0 1 -3.48-7.5 25.36252 25.36252 0 0 1 -3.79.29c-26.64 0-31.86-21.8999-20.22-38.77v-.01h-.01c-3.23-4.7-5.98-9.3999-8.68-14.09985-8.24-14.37015-15.93-28.74027-35.09-43.12015l48-72a287.27909 287.27909 0 0 1 38.27 2.51 48.66966 48.66966 0 0 1 11.13-6.36011c10.2-4.14989 20.4-4.14989 30.6-4.14989 24 0 40 16 64 8l48 72c-10.97 10.97-10.65991 21.93994-14.53 32.90991a41.65485 41.65485 0 0 1 -3.35 7.27c5.51 2.15017 10.16 6.64016 11.98 10.17995z" fill="#fcd0a3" data-original="#f5a971" style="" class=""/><g fill="#e37066"><path d="m237.66 432a4.00749 4.00749 0 0 1 0 5.65991 79.63832 79.63832 0 0 1 -11.78 9.37009 55.097 55.097 0 0 1 -18.61 8.18 20.459 20.459 0 0 1 -3.48-7.5c14.49-2.13993 28.06-15.5601 28.21-15.71a4.00746 4.00746 0 0 1 5.66 0z" fill="#ffb983" data-original="#e37066" style="" class=""/><path d="m308.41992 347.80005a26.08206 26.08206 0 0 1 -18.31994 9.28c-.80994.06982-1.63.09985-2.44007.09985a36.54054 36.54054 0 0 1 -20.09985-6.52c-5.36011-3.57983-11.49-4.59985-18.05005-4.63989-1.26 4.53-2.76 9.01-4.31 13.17993-7.13001 19.09006-12.70001 31.67994-22.86001 42.58006-6.35 6.34985-24.84 17.47-42.56 7.43994h-.01c-3.23-4.7-5.98-9.3999-8.68-14.09985 4.54 2.17993 10.16 4.98 12.74 6.27 12.78 6.38989 29.04-1.57007 34.51-7.0503 2.48-2.48 12.06-18.37988 19.36-37.93994 1.35-3.60986 2.47-6.93994 3.39-10.02-1.35.1001-2.71.21-4.08.32007-15.18 1.26-32.37 2.67993-43.67-14.26a4.00213 4.00213 0 0 1 6.66-4.43992c8.68 13.02 22.11 11.90991 36.33 10.73 11.57995-.96 24.69-2.05 35.67 5.27 5.67993 3.78 11.76 5.57007 17.45 5.10986a18.16194 18.16194 0 0 0 12.78-6.37986c8.15-9.93994 1.73-22.77-6.23-30.73-11.06006-11.06006-27.88-19.47-50-25a220.72545 220.72545 0 0 0 -23.73-4.49 48.66966 48.66966 0 0 1 11.13-6.36011c4.8.8501 9.67 1.87012 14.54 3.09009 23.54 5.88013 41.62006 15 53.71991 27.09985 16.52002 16.53029 13.97009 32.66017 6.76001 41.46022z" fill="#ffb983" data-original="#e37066" style="" class=""/><path d="m261.65991 453.65991c-1.61991 1.62009-14.47991 14.07009-30.02991 17.48023a19.825 19.825 0 0 1 -2.58-7.64014c14.02-2.68994 26.81-15.35986 26.95-15.5a4.00216 4.00216 0 0 1 5.65991 5.65991z" fill="#ffb983" data-original="#e37066" style="" class=""/><path d="m361.6 419.66992c-2.83-5.52-10.05994-12.56982-19.23-14.97a24.75172 24.75172 0 0 0 -6.01-.82007 19.31893 19.31893 0 0 1 7.92-10.67985 13.4068 13.4068 0 0 1 7.53-2.28 15.96633 15.96633 0 0 1 4.14.56 18.87823 18.87823 0 0 1 2.17005.7 41.65485 41.65485 0 0 0 3.35-7.27 27.50187 27.50187 0 0 0 -3.49-1.16992 21.92075 21.92075 0 0 0 -18.12 2.79 27.41657 27.41657 0 0 0 -12 18.57007c-.0199.15991-.02991.32983-.04993.48974a22.61073 22.61073 0 0 0 -3.56012 1.90011 27.40326 27.40326 0 0 0 -12 18.58008c-.01.10986-.02.23-.04.33984a30.415 30.415 0 0 0 -7.33 3.92017 25.11255 25.11255 0 0 0 -9.66 12.88991 17.17824 17.17824 0 0 0 -9.92993 4.90991c-4.55591 4.55274-7.29419 8.77051-8.79614 12.58863a89.05 89.05 0 0 1 -6.49393 7.28146c-6.74 6.74-13.08008 10.65991-18.89 11.71a17.30721 17.30721 0 0 0 7 6.26h.01c5.72009-2.25 11.59-6.36987 17.53991-12.31006.0232-.02319.04444-.04614.06751-.06958a20.19844 20.19844 0 0 0 3.01257 6.04981c.34009.46972.7.92993 1.07007 1.37988 1.88989-1.57007 3.87988-3.37012 5.96-5.3501-.18994-.24-.37-.48-.55-.72-4.3-5.93994-2.37988-13.05981 5.72-21.16992a9.31551 9.31551 0 0 1 6.82007-2.75 14.13388 14.13388 0 0 1 3.82007.55981c6.85986 1.9502 13.13989 8.29 14.16992 12.66016a10.39124 10.39124 0 0 1 0 4.33984 7.82217 7.82217 0 0 0 2.09009.61011 16.53267 16.53267 0 0 0 5.93979-.40995 17.699 17.699 0 0 0 -.24-6.38013c-1.8-7.61987-10.67-15.92993-19.77-18.51a2.57322 2.57322 0 0 0 -.26-.06982 18.6815 18.6815 0 0 1 6.06006-7.02 20.22034 20.22034 0 0 1 11.42994-4.06005 11.62759 11.62759 0 0 1 3.55.53c3.96 1.30981 8.1 5.05 11.07 10.03a25.60082 25.60082 0 0 1 3.17 7.74 16.56625 16.56625 0 0 0 7.23-1.69019 5.23561 5.23561 0 0 0 .53-.27 33.40923 33.40923 0 0 0 -4.06-9.87981c-3.99-6.67993-9.62-11.60986-15.43994-13.53a19.626 19.626 0 0 0 -6.27-.90991 19.297 19.297 0 0 1 7.88989-10.6001 13.55055 13.55055 0 0 1 7.58008-2.27978 16.34209 16.34209 0 0 1 4.09009.5498c6.42993 1.68018 12.07983 6.86011 14.1499 10.88013a15.842 15.842 0 0 1 1.41992 6.7 17.41874 17.41874 0 0 0 5.72006-1.62024 12.81016 12.81016 0 0 0 2.1-1.23 22.1773 22.1773 0 0 0 -2.13-7.49998z" fill="#ffb983" data-original="#e37066" style="" class=""/></g><path d="m320 280 56 80 24-16-56-88z" fill="#d0f4ff" data-original="#b1cdb4" style="" class=""/><path d="m496 112-168 152 80 104 88-72z" fill="#32393f" data-original="#0e638b" style="" class=""/><path d="m192 280-56 80-24-16 56-88z" fill="#d0f4ff" data-original="#b1cdb4" style="" class=""/><path d="m16 112 168 152-80 104-88-72z" fill="#32393f" data-original="#0e638b" style="" class=""/><path d="m416 48v144a24 24 0 0 1 -24 24h-109.33008l-26.66992 40-26.67-40h-109.33a24 24 0 0 1 -24-24v-144a24 24 0 0 1 24-24h272a24 24 0 0 1 24 24z" fill="#00bbf5" data-original="#f3b73f" style="" class=""/><rect fill="#32393f" height="16" rx="8" width="272" x="120" y="184" data-original="#0e638b" style="" class=""/><path d="m144 136h32v32h-32z" fill="#ffffff" data-original="#537ec2" style="" class=""/><path d="m208 112h32v56h-32z" fill="#ffffff" data-original="#537ec2" style="" class=""/><path d="m280 136h32v32h-32z" fill="#ffffff" data-original="#537ec2" style="" class=""/><path d="m344 104h28v64h-28z" fill="#ffffff" data-original="#537ec2" style="" class=""/><path d="m384 48h-44l6.26147 10.43579-50.05147 31.28198-63.00538-42.00384a16 16 0 0 0 -19.41132 1.27155l-58.68494 51.34933a4 4 0 0 0 -.37637 5.64424l10.53586 12.04172a4 4 0 0 0 5.6444.37638l54.07554-47.3161 62.207 41.47106a16 16 0 0 0 17.35517.25512l54.06125-33.78843 5.38879 8.9812z" fill="#0076b8" data-original="#03999c" style="" class=""/></g></g></svg>
